<svg width="37" height="40" viewBox="0 0 37 40" fill="none" xmlns="http://www.w3.org/2000/svg">
<path d="M22.1583 20.0007C22.1583 17.9353 22.717 16.0101 23.6812 14.3652H14.0978C13.5932 16.155 13.3184 18.0428 13.3184 20.0007C13.3184 21.9587 13.5932 23.8465 14.0978 25.6363H23.6812C22.717 23.9961 22.1583 22.0662 22.1583 20.0007Z" fill="#2C2931"/>
<path d="M18.5 9.1729C22.2757 9.1729 25.5828 11.2524 27.4166 14.3645H37C34.6526 6.06544 27.2634 0 18.5 0C9.73661 0 2.34742 6.06544 0 14.3645H9.58342C11.4172 11.2524 14.7243 9.1729 18.5 9.1729ZM18.5 30.8271C14.7243 30.8271 11.4172 28.7477 9.58342 25.6355H0C2.34742 33.9346 9.74112 40 18.5 40C27.2634 40 34.6571 33.9346 37 25.6355H27.4166C25.5828 28.7477 22.2757 30.8271 18.5 30.8271Z" fill="#0E0E10"/>
</svg>
